<svg width="45" height="50" viewBox="0 0 45 50" fill="none" xmlns="http://www.w3.org/2000/svg">
<g clip-path="url(#clip0_4_47)">
<path d="M22.3223 13.7695C16.1113 13.7695 11.1016 18.7793 11.1016 24.9902C11.1016 31.2012 16.1113 36.2109 22.3223 36.2109C28.5332 36.2109 33.543 31.2012 33.543 24.9902C33.543 18.7793 28.5332 13.7695 22.3223 13.7695ZM22.3223 32.2852C18.3086 32.2852 15.0273 29.0137 15.0273 24.9902C15.0273 20.9668 18.2988 17.6953 22.3223 17.6953C26.3457 17.6953 29.6172 20.9668 29.6172 24.9902C29.6172 29.0137 26.3359 32.2852 22.3223 32.2852ZM36.6191 13.3105C36.6191 14.7656 35.4473 15.9277 34.0019 15.9277C32.5469 15.9277 31.3848 14.7559 31.3848 13.3105C31.3848 11.8652 32.5566 10.6934 34.0019 10.6934C35.4473 10.6934 36.6191 11.8652 36.6191 13.3105ZM44.0508 15.9668C43.8848 12.4609 43.084 9.35547 40.5156 6.79687C37.957 4.23828 34.8516 3.4375 31.3457 3.26172C27.7324 3.05664 16.9023 3.05664 13.2891 3.26172C9.79297 3.42773 6.6875 4.22852 4.11914 6.78711C1.55078 9.3457 0.759766 12.4512 0.583984 15.957C0.378906 19.5703 0.378906 30.4004 0.583984 34.0137C0.75 37.5195 1.55078 40.625 4.11914 43.1836C6.6875 45.7422 9.7832 46.543 13.2891 46.7187C16.9023 46.9238 27.7324 46.9238 31.3457 46.7187C34.8516 46.5527 37.957 45.7519 40.5156 43.1836C43.0742 40.625 43.875 37.5195 44.0508 34.0137C44.2559 30.4004 44.2559 19.5801 44.0508 15.9668ZM39.3828 37.8906C38.6211 39.8047 37.1465 41.2793 35.2227 42.0508C32.3418 43.1934 25.5059 42.9297 22.3223 42.9297C19.1387 42.9297 12.293 43.1836 9.42187 42.0508C7.50781 41.2891 6.0332 39.8144 5.26172 37.8906C4.11914 35.0098 4.38281 28.1738 4.38281 24.9902C4.38281 21.8066 4.12891 14.9609 5.26172 12.0898C6.02344 10.1758 7.49805 8.70117 9.42187 7.92969C12.3027 6.78711 19.1387 7.05078 22.3223 7.05078C25.5059 7.05078 32.3516 6.79687 35.2227 7.92969C37.1367 8.6914 38.6113 10.166 39.3828 12.0898C40.5254 14.9707 40.2617 21.8066 40.2617 24.9902C40.2617 28.1738 40.5254 35.0195 39.3828 37.8906Z" fill="#A46DFF"/>
</g>
<defs>
<clipPath id="clip0_4_47">
<rect width="43.75" height="50" fill="white" transform="translate(0.4375)"/>
</clipPath>
</defs>
</svg>
