<svg width="51" height="50" viewBox="0 0 51 50" fill="none" xmlns="http://www.w3.org/2000/svg">
<path d="M5.4498 18.1494H14.2399V44.6018H5.4498V18.1494ZM9.90371 5.39825C6.89521 5.39825 4.92969 7.37335 4.92969 9.96574C4.92969 12.5048 6.83769 14.5373 9.78867 14.5373H9.84473C12.9107 14.5373 14.8201 12.5047 14.8201 9.96574C14.7626 7.37335 12.9108 5.39825 9.90371 5.39825ZM35.8222 17.528C31.1562 17.528 29.0659 20.0944 27.8998 21.8943V18.1494H19.107C19.2234 20.631 19.107 44.6018 19.107 44.6018H27.8998V29.8289C27.8998 29.0377 27.9573 28.2494 28.1887 27.6826C28.8253 26.1031 30.272 24.4675 32.6986 24.4675C35.8824 24.4675 37.1539 26.8944 37.1539 30.4487V44.6017H45.9453V29.4334C45.9453 21.3085 41.6092 17.528 35.8222 17.528Z" fill="#A46DFF"/>
</svg>
