<svg width="38" height="50" viewBox="0 0 38 50" fill="none" xmlns="http://www.w3.org/2000/svg">
<g clip-path="url(#clip0_4_45)">
<path d="M28.5762 30.3711L9.46484 26.3379L8.66406 30.1758L27.7754 34.1797L28.5762 30.3711ZM33.5566 21.875L18.5664 9.3457L16.0762 12.3535L31.0664 24.8828L33.5566 21.875ZM30.5098 25.752L12.8047 17.4805L11.1738 21.0449L28.8691 29.2969L30.5098 25.752ZM25.7734 3.125L22.6484 5.46875L34.2988 21.123L37.4238 18.7793L25.7734 3.125ZM27.7754 35.1562H8.24414V39.0332H27.7754V35.1562ZM31.6523 42.9688H4.35742V31.25H0.451172V46.875H35.5586V31.25H31.6523V42.9688Z" fill="#A46DFF"/>
</g>
<defs>
<clipPath id="clip0_4_45">
<rect width="37.5" height="50" fill="white" transform="translate(0.1875)"/>
</clipPath>
</defs>
</svg>
