<svg width="51" height="50" viewBox="0 0 51 50" fill="none" xmlns="http://www.w3.org/2000/svg">
<g clip-path="url(#clip0_4_39)">
<path d="M45.2979 14.816C45.3296 15.2601 45.3296 15.7044 45.3296 16.1485C45.3296 29.6954 35.0187 45.3046 16.1735 45.3046C10.3677 45.3046 4.97432 43.623 0.4375 40.7044C1.2624 40.7995 2.05547 40.8312 2.91211 40.8312C7.70264 40.8312 12.1126 39.2133 15.6342 36.4531C11.1291 36.3579 7.35371 33.4074 6.05293 29.3465C6.6875 29.4416 7.32197 29.5051 7.98828 29.5051C8.9083 29.5051 9.82842 29.3781 10.685 29.1561C5.98955 28.2043 2.46787 24.08 2.46787 19.099V18.9722C3.83203 19.7336 5.41846 20.2095 7.0998 20.2728C4.33965 18.4327 2.53135 15.2919 2.53135 11.7386C2.53135 9.83505 3.03887 8.09013 3.92725 6.56727C8.97168 12.7855 16.5542 16.8464 25.0566 17.2906C24.898 16.5292 24.8028 15.7361 24.8028 14.943C24.8028 9.29569 29.3714 4.6955 35.0503 4.6955C38.0008 4.6955 40.6657 5.9328 42.5376 7.93153C44.8535 7.48739 47.0743 6.63075 49.0414 5.45692C48.2799 7.83641 46.6619 9.83514 44.5363 11.1041C46.5985 10.8821 48.5973 10.3109 50.4373 9.51786C49.0416 11.5482 47.2966 13.3565 45.2979 14.816Z" fill="#A46DFF"/>
</g>
<defs>
<clipPath id="clip0_4_39">
<rect width="50" height="50" fill="white" transform="translate(0.4375)"/>
</clipPath>
</defs>
</svg>
